<svg xmlns="http://www.w3.org/2000/svg" width="16" height="16" viewBox="0 0 16 16">
  <path d="M 5 2 C 3.3431 2 2 3.3431 2 5 C 2 6.6569 3.3431 8 5 8 C 6.6569 8 8 6.6569 8 5 C 8 3.3431 6.6569 2 5 2 z M 5 3 C 6.1046 3 7 3.8954 7 5 C 7 6.1046 6.1046 7 5 7 C 3.8954 7 3 6.1046 3 5 C 3 3.8954 3.8954 3 5 3 z M 11 8 C 9.3431 8 8 9.3431 8 11 C 8 12.6569 9.3431 14 11 14 C 12.6569 14 14 12.6569 14 11 C 14 9.3431 12.6569 8 11 8 z M 11 9 C 12.1046 9 13 9.8954 13 11 C 13 12.1046 12.1046 13 11 13 C 9.8954 13 9 12.1046 9 11 C 9 9.8954 9.8954 9 11 9 z" style="fill:currentColor"/>
</svg>
